<?xml version="1.0" encoding="UTF-8"?>
<svg version="1.1" xmlns="http://www.w3.org/2000/svg" width="650" height="650">
<path d="M0 0 C0.66 0 1.32 0 2 0 C1.93941406 0.69448242 1.87882812 1.38896484 1.81640625 2.10449219 C1.53899767 5.31923083 1.26946841 8.53458643 1 11.75 C0.90460938 12.84183594 0.80921875 13.93367187 0.7109375 15.05859375 C-4.30500779 75.60821905 23.70104144 139.37217577 58.9765625 187.1875 C60.80286162 189.72598526 62.43764359 192.29324241 64 195 C60.24607467 195.8482761 56.65500905 196.19295809 52.8125 196.359375 C31.68210997 197.39999612 10.90103627 199.73811035 -10 203 C-11.07214752 203.16725586 -11.07214752 203.16725586 -12.16595459 203.33789062 C-84.66796021 214.75625225 -155.38335968 240.07806159 -237.92431641 279.50048828 C-242.93655832 281.9441452 -247.96797472 284.34741243 -253 286.75 C-254.3919458 287.41539795 -254.3919458 287.41539795 -255.81201172 288.09423828 C-264.86393972 292.41881654 -273.92991028 296.71366822 -283 301 C-284.03007424 296.03561445 -284.33195641 291.92669592 -283 287 C-279.28444941 282.94982321 -273.92164098 280.68882374 -269.11572266 278.17675781 C-265.97961802 276.43246698 -263.314949 274.3557143 -260.5 272.125 C-259.44833565 271.29243923 -258.39624455 270.46041727 -257.34375 269.62890625 C-256.539375 268.99106201 -256.539375 268.99106201 -255.71875 268.34033203 C-253.19898378 266.37534389 -250.62661117 264.48370877 -248.05712891 262.58447266 C-241.1309149 257.46009357 -234.46617892 252.12775617 -227.9375 246.5078125 C-225.37396823 244.31926543 -222.77432569 242.20785803 -220.125 240.125 C-210.47811864 232.47348335 -201.2899638 224.22588629 -192.171875 215.95703125 C-190.23952519 214.21583115 -188.2834207 212.50968171 -186.3125 210.8125 C-176.88961767 202.5888936 -167.84585095 193.93939423 -159.06079102 185.04150391 C-156.51859551 182.47824167 -153.94405699 180.01815119 -151.1875 177.6875 C-142.51005071 170.2861462 -134.34312968 161.9387165 -127 153.21875 C-123.96325864 149.84986506 -120.72170713 146.69110168 -117.5 143.5 C-113.08535098 139.12318779 -108.73941356 134.7614976 -104.7265625 130.0078125 C-102.88845399 127.8702836 -100.98189508 125.80319774 -99.0637207 123.73754883 C-94.30032865 118.60556578 -89.76345777 113.3595233 -85.37109375 107.90234375 C-82.6816918 104.61037398 -79.90839531 101.39985991 -77.125 98.1875 C-72.69146875 93.05434255 -68.43791045 87.81402844 -64.28125 82.45507812 C-60.65191296 77.78952412 -56.90366992 73.23257869 -53.125 68.6875 C-47.84001504 62.317953 -42.74654533 55.82998459 -37.75219727 49.23071289 C-34.26552883 44.63000491 -30.69789176 40.10879053 -27.0625 35.625 C-21.83193086 29.15862266 -16.87798446 22.50660475 -11.98266602 15.78369141 C-9.08718881 11.81024249 -6.17189741 7.85167897 -3.20703125 3.9296875 C-2.64089111 3.17671387 -2.07475098 2.42374023 -1.49145508 1.64794922 C-0.9992749 1.10412598 -0.50709473 0.56030273 0 0 Z " fill="#030404" transform="translate(283,223)"/>
<path d="M0 0 C14.52107463 -0.25088054 28.85192911 6.54269948 39.81494141 15.83398438 C50.68394757 26.39140015 54.75535937 38.61769536 57.12744141 53.15429688 C57.38801582 54.74344658 57.38801582 54.74344658 57.65385437 56.36470032 C59.34428878 66.96689934 60.48038296 77.58209941 61.44384766 88.27148438 C61.54228973 89.32883789 61.64073181 90.38619141 61.74215698 91.47558594 C63.3030891 108.27498646 64.60934312 125.09153906 65.86572266 141.91601562 C65.94098364 142.92271994 66.01624462 143.92942425 66.09378624 144.96663475 C66.85411372 155.14969897 67.60619047 165.33328457 68.33477688 175.51867199 C69.69901831 194.55769855 71.15251911 213.57226839 73.18994141 232.55273438 C73.26916903 233.30158401 73.34839664 234.05043365 73.4300251 234.82197571 C75.24165882 251.78220207 77.91868885 268.732184 83.43212891 284.92382812 C84.13134766 287.08398438 84.13134766 287.08398438 84.13134766 289.08398438 C80.46970413 287.59491601 78.67885605 285.60853301 76.25634766 282.52148438 C75.47001953 281.5340625 74.68369141 280.54664063 73.87353516 279.52929688 C73.43879883 278.98047852 73.0040625 278.43166016 72.55615234 277.86621094 C69.87243451 274.50926437 67.12034749 271.20833462 64.38134766 267.89648438 C54.5891835 256.0131886 44.84699097 244.11749017 35.50488281 231.87548828 C32.8157241 228.36801465 30.09674249 224.88365832 27.38134766 221.39648438 C26.79135986 220.63843506 26.20137207 219.88038574 25.59350586 219.09936523 C23.7730947 216.76066478 21.95228382 214.42227608 20.13134766 212.08398438 C8.28274499 196.86901431 -3.48599382 181.59582026 -15.1953125 166.2734375 C-17.91898498 162.70969446 -20.64386897 159.14687807 -23.36865234 155.58398438 C-24.45199172 154.16732233 -25.53532505 152.75065566 -26.61865234 151.33398438 C-27.15490234 150.63273438 -27.69115234 149.93148437 -28.24365234 149.20898438 C-46.11865234 125.83398438 -46.11865234 125.83398438 -47.74438477 123.70800781 C-48.82525252 122.29457787 -49.90614436 120.88116634 -50.98706055 119.46777344 C-53.73331739 115.87673736 -56.47912538 112.28535958 -59.22412109 108.69335938 C-64.89571635 101.27258053 -70.57664683 93.85931621 -76.27490234 86.45898438 C-79.87762806 81.77544094 -83.46292787 77.07855475 -87.05004883 72.38305664 C-90.3328482 68.08733993 -93.62734228 63.80105857 -96.93115234 59.52148438 C-102.6500806 52.09724144 -108.25971158 44.59148412 -113.86865234 37.08398438 C-107.36667897 23.05629162 -83.69483598 14.76226178 -70.25830078 9.61962891 C-52.48456999 3.10873374 -35.60698588 1.1448123 -16.74365234 0.52148438 C-15.54611328 0.47830078 -14.34857422 0.43511719 -13.11474609 0.390625 C-8.74362879 0.23981427 -4.3717949 0.12799127 0 0 Z " fill="#020302" transform="translate(538.86865234375,320.916015625)"/>
<path d="M0 0 C8.52834485 6.23166916 16.63776086 12.81835417 24.56640625 19.78955078 C27.75428821 22.55773391 31.05442581 25.19024091 34.33251953 27.85009766 C36.83904796 29.9070087 39.31275828 31.99535231 41.77807617 34.10107422 C49.06049768 40.31732395 56.49477993 46.30065076 64.09814453 52.11962891 C65.16162109 52.93802246 65.16162109 52.93802246 66.24658203 53.77294922 C93.53970238 74.67957384 124.40061277 92.05407018 157.38720703 102.11181641 C160.09814453 103.11962891 160.09814453 103.11962891 161.09814453 105.11962891 C160.22939697 105.15403076 159.36064941 105.18843262 158.46557617 105.22387695 C119.61419048 106.87413338 82.87268752 113.19727971 51.65673828 138.05322266 C50.09814453 139.11962891 50.09814453 139.11962891 48.09814453 139.11962891 C47.82776367 138.61326904 47.55738281 138.10690918 47.27880859 137.58520508 C36.93898162 118.30311786 25.72605721 100.25279797 12.09814453 83.11962891 C11.34533203 82.16443359 10.59251953 81.20923828 9.81689453 80.22509766 C7.92645113 77.843289 6.01717648 75.47843901 4.09814453 73.11962891 C3.41751953 72.27658203 2.73689453 71.43353516 2.03564453 70.56494141 C-4.13565697 62.96101635 -10.46440671 55.49878684 -16.90185547 48.11962891 C-17.61027588 47.30413574 -17.61027588 47.30413574 -18.33300781 46.47216797 C-26.28604568 37.36784912 -34.81738687 29.79806194 -44.90185547 23.11962891 C-44.29301514 23.71275879 -43.6841748 24.30588867 -43.05688477 24.91699219 C-20.64272901 46.82862643 -20.64272901 46.82862643 -11.90185547 59.11962891 C-10.90191022 60.49857486 -9.90190717 61.8774789 -8.90185547 63.25634766 C-3.87549493 70.24352386 0.92968889 77.33457887 5.53320312 84.60668945 C14.4782436 98.63746612 24.36427933 112.02926473 34.57421875 125.15771484 C36.5784674 127.73800035 38.568377 130.32916594 40.55810547 132.9206543 C42.4022012 135.32230605 44.25014324 137.72098163 46.09814453 140.11962891 C43.87127295 144.12069653 41.1765181 147.4549267 38.16064453 150.86962891 C27.00678276 163.85945587 18.24665643 177.92334716 10.00830078 192.90478516 C3.48426892 204.73350452 3.48426892 204.73350452 1.09814453 207.11962891 C-7.60299203 208.12509358 -18.74519789 207.25919784 -26.28857422 202.66650391 C-28.46719134 200.63371714 -30.15208555 198.53335765 -31.90185547 196.11962891 C-32.63017578 195.14767578 -33.35849609 194.17572266 -34.10888672 193.17431641 C-46.8025658 175.50799025 -56.61754924 155.17836936 -64.90185547 135.11962891 C-65.21171387 134.37825684 -65.52157227 133.63688477 -65.84082031 132.87304688 C-79.63409426 99.37089667 -92.69810053 48.86124321 -80.90185547 13.11962891 C-80.60021484 12.19537109 -80.29857422 11.27111328 -79.98779297 10.31884766 C-77.58195472 3.71746222 -74.66697631 -2.5035536 -68.52685547 -6.31787109 C-58.72071077 -10.57580234 -46.51980926 -8.21839851 -36.85498047 -4.65087891 C-11.03126719 5.53657598 12.51269752 21.862892 34.09814453 39.11962891 C35.00435547 39.84408203 35.91056641 40.56853516 36.84423828 41.31494141 C47.60589256 50.03047564 58.01694254 59.17194072 68.47412109 68.24780273 C74.44425568 73.42694894 80.44376794 78.57144133 86.44970703 83.70898438 C89.33413029 86.17731932 92.21605393 88.64857109 95.09814453 91.11962891 C90.71227814 85.63729592 85.78510538 80.98022907 80.58251953 76.28369141 C76.66174938 72.74140023 72.81927497 69.11754641 68.97314453 65.49462891 C63.8241892 60.65417536 58.65000631 55.85060551 53.37158203 51.15087891 C51.82361701 49.76781738 50.28753136 48.37137059 48.76220703 46.96337891 C42.39915665 41.11513843 35.71277863 35.79502789 28.88183594 30.51367188 C27.18071963 29.18416543 25.50172918 27.83178276 23.82861328 26.46728516 C0.97786363 7.92219493 -28.81635652 -13.87148289 -59.67529297 -13.14208984 C-65.63010411 -12.44213836 -71.42457372 -10.25385985 -76.90185547 -7.88037109 C-75.39666653 -12.08932535 -72.82827186 -13.42550807 -69.02685547 -15.56787109 C-67.97755859 -16.16986328 -66.92826172 -16.77185547 -65.84716797 -17.39208984 C-44.87529621 -27.98928233 -16.88636289 -12.15231488 0 0 Z " fill="#030403" transform="translate(374.90185546875,213.88037109375)"/>
<path d="M0 0 C4.08001168 1.90312412 7.20629707 4.60816362 10.5625 7.5625 C11.8193933 8.65600535 13.07721553 9.74844385 14.3359375 10.83984375 C14.95694336 11.37851074 15.57794922 11.91717773 16.21777344 12.47216797 C18.66811665 14.57274986 21.17410936 16.6005254 23.6875 18.625 C28.42115212 22.46761172 32.93249932 26.51290652 37.421875 30.63671875 C43.59465631 36.3786744 43.59465631 36.3786744 50.22265625 41.56640625 C50.80917969 42.03949219 51.39570313 42.51257813 52 43 C52 43.66 52 44.32 52 45 C51.23445801 44.97905273 50.46891602 44.95810547 49.68017578 44.93652344 C46.16192115 44.85261638 42.64387797 44.80110404 39.125 44.75 C37.92101562 44.71648437 36.71703125 44.68296875 35.4765625 44.6484375 C25.15027705 44.53619527 17.58580535 46.56549607 9.3125 52.875 C8.39984375 53.56851563 7.4871875 54.26203125 6.546875 54.9765625 C1.7858338 58.7591075 -2.78037746 62.61159256 -7 67 C-8.84558988 63.30882025 -6.295011 59.02788681 -5.10546875 55.26171875 C-1.73798081 43.18300869 -1.44842362 30.63313306 -0.875 18.1875 C-0.78837892 16.41598527 -0.70114352 14.64450048 -0.61328125 12.87304688 C-0.40178372 8.58234271 -0.19855702 4.29132166 0 0 Z " fill="#0A0B0B" transform="translate(283,127)"/>
<path d="M0 0 C8.52834485 6.23166916 16.63776086 12.81835417 24.56640625 19.78955078 C27.75428821 22.55773391 31.05442581 25.19024091 34.33251953 27.85009766 C36.83913733 29.90708204 39.31294149 31.9954896 41.77832031 34.10131836 C54.71701977 45.14546401 68.24548504 55.25155993 82.09814453 65.11962891 C80.78564453 68.05712891 80.78564453 68.05712891 79.09814453 71.11962891 C78.10814453 71.44962891 77.11814453 71.77962891 76.09814453 72.11962891 C75.69611816 71.74265869 75.2940918 71.36568848 74.87988281 70.97729492 C67.77586422 64.32019105 60.67387702 57.66560221 53.40673828 51.18603516 C51.84631556 49.7893116 50.29704207 48.38004683 48.75830078 46.95947266 C42.39621794 41.11295569 35.7113076 35.79389056 28.88183594 30.51367188 C27.18071963 29.18416543 25.50172918 27.83178276 23.82861328 26.46728516 C0.97786363 7.92219493 -28.81635652 -13.87148289 -59.67529297 -13.14208984 C-65.63010411 -12.44213836 -71.42457372 -10.25385985 -76.90185547 -7.88037109 C-75.39666653 -12.08932535 -72.82827186 -13.42550807 -69.02685547 -15.56787109 C-67.97755859 -16.16986328 -66.92826172 -16.77185547 -65.84716797 -17.39208984 C-44.87529621 -27.98928233 -16.88636289 -12.15231488 0 0 Z " fill="#131413" transform="translate(374.90185546875,213.88037109375)"/>
<path d="M0 0 C-0.66 0.33 -1.32 0.66 -2 1 C-1.505 3.475 -1.505 3.475 -1 6 C-7.05600609 4.73325152 -11.77215277 2.73652683 -17.125 -0.3125 C-31.78699021 -8.33697847 -49.44936873 -15.50659935 -66.25 -10.625 C-69.55135475 -9.53997531 -72.8096352 -8.38249141 -76 -7 C-74.49481106 -11.20895426 -71.92641639 -12.54513697 -68.125 -14.6875 C-67.07570313 -15.28949219 -66.02640625 -15.89148438 -64.9453125 -16.51171875 C-44.46019593 -26.86295139 -16.70109125 -11.59798004 0 0 Z " fill="#0D0D0C" transform="translate(374,213)"/>
<path d="M0 0 C4.11582901 3.07124466 8.21835555 6.15817978 12.2890625 9.2890625 C13.00320313 9.83820313 13.71734375 10.38734375 14.453125 10.953125 C15.90972396 12.07439182 17.36544368 13.1968017 18.8203125 14.3203125 C22.79231311 17.37126949 26.79394101 20.2799934 31 23 C29.6875 25.9375 29.6875 25.9375 28 29 C27.01 29.33 26.02 29.66 25 30 C24.59797363 29.62302979 24.19594727 29.24605957 23.78173828 28.85766602 C9.19560526 15.08591737 9.19560526 15.08591737 -6 2 C-3.50907189 0.75453595 -2.58919267 1.2232422 0 2 C0 1.34 0 0.68 0 0 Z " fill="#171716" transform="translate(426,256)"/>
<path d="M0 0 C0 0.66 0 1.32 0 2 C-0.66 2 -1.32 2 -2 2 C-2 2.66 -2 3.32 -2 4 C-2.66 4 -3.32 4 -4 4 C-3.505 5.485 -3.505 5.485 -3 7 C-4.35931641 6.7834375 -4.35931641 6.7834375 -5.74609375 6.5625 C-19.08420594 4.53002576 -28.49398818 4.58072821 -41 10 C-39.49481106 5.79104574 -36.92641639 4.45486303 -33.125 2.3125 C-32.07570313 1.71050781 -31.02640625 1.10851562 -29.9453125 0.48828125 C-20.68286206 -4.19208164 -9.76641009 -2.15322427 0 0 Z " fill="#131516" transform="translate(339,196)"/>
<path d="M0 0 C4.78775956 3.53613714 9.46451416 7.14483704 14 11 C13.34 12.98 12.68 14.96 12 17 C5.59099023 12.43492321 -0.2190161 7.33082532 -6 2 C-3.50907189 0.75453595 -2.58919267 1.2232422 0 2 C0 1.34 0 0.68 0 0 Z " fill="#181817" transform="translate(426,256)"/>
<path d="M0 0 C0.66 0 1.32 0 2 0 C1.67 3.96 1.34 7.92 1 12 C0.67 11.34 0.34 10.68 0 10 C-2.94865641 12.10618315 -5.4837822 14.39391727 -8 17 C-8.99 16.67 -9.98 16.34 -11 16 C-9.31906944 12.23617723 -6.95783133 9.03234344 -4.5 5.75 C-4.09652344 5.19570312 -3.69304687 4.64140625 -3.27734375 4.0703125 C-2.23549829 2.67430835 -1.12254588 1.33197608 0 0 Z " fill="#141618" transform="translate(283,223)"/>
<path d="M0 0 C2.00993705 3.01490557 2.72623341 5.2149927 3.625 8.6875 C3.88539063 9.68136719 4.14578125 10.67523437 4.4140625 11.69921875 C4.60742188 12.45847656 4.80078125 13.21773437 5 14 C0.68720594 12.07398727 -1.22069481 9.78294318 -4 6 C-4 5.01 -4 4.02 -4 3 C-3.01 2.67 -2.02 2.34 -1 2 C-0.67 1.34 -0.34 0.68 0 0 Z " fill="#1F201D" transform="translate(618,596)"/>
<path d="M0 0 C2.31 1.65 4.62 3.3 7 5 C5.68 6.65 4.36 8.3 3 10 C0.03 7.36 -2.94 4.72 -6 2 C-3.50907189 0.75453595 -2.58919267 1.2232422 0 2 C0 1.34 0 0.68 0 0 Z " fill="#2A2823" transform="translate(426,256)"/>
<path d="M0 0 C1.41805831 0.28482368 2.83440379 0.57818144 4.25 0.875 C5.03890625 1.03742188 5.8278125 1.19984375 6.640625 1.3671875 C8.96831144 1.99150075 10.89031952 2.84838542 13 4 C13 4.33 13 4.66 13 5 C9.04 5 5.08 5 1 5 C0.67 3.35 0.34 1.7 0 0 Z " fill="#131411" transform="translate(523,314)"/>
<path d="M0 0 C0.66 0.33 1.32 0.66 2 1 C1.67 1.66 1.34 2.32 1 3 C2.32 3.33 3.64 3.66 5 4 C4.33613281 4.19335938 3.67226563 4.38671875 2.98828125 4.5859375 C-3.59789309 6.52751352 -3.59789309 6.52751352 -10 9 C-8.60064115 5.59635112 -7.12995268 4.09193812 -4 2.1875 C-3.29875 1.74792969 -2.5975 1.30835938 -1.875 0.85546875 C-1.25625 0.57316406 -0.6375 0.29085937 0 0 Z " fill="#202627" transform="translate(308,197)"/>
<path d="M0 0 C2.5363613 1.01454452 3.79351461 1.6853556 5.3125 4 C5.539375 4.66 5.76625 5.32 6 6 C5.67 6.66 5.34 7.32 5 8 C2.13275314 7.42655063 1.1385485 7.1385485 -1 5 C-0.625 2.375 -0.625 2.375 0 0 Z " fill="#0D0D0D" transform="translate(401,236)"/>
<path d="M0 0 C-4.30769231 4.92307692 -4.30769231 4.92307692 -7.8125 5.3125 C-8.8953125 5.1578125 -8.8953125 5.1578125 -10 5 C-9.625 3.0625 -9.625 3.0625 -9 1 C-6.04335481 -0.4783226 -3.25770263 -0.06032783 0 0 Z " fill="#0B0A0B" transform="translate(319,195)"/>
<path d="M0 0 C-2.38457948 1.58971965 -4.6304124 2.86741593 -7.1875 4.125 C-7.90292969 4.47820312 -8.61835938 4.83140625 -9.35546875 5.1953125 C-9.89816406 5.46085938 -10.44085938 5.72640625 -11 6 C-11.33 5.01 -11.66 4.02 -12 3 C-8.20587784 -0.79412216 -5.14176915 -0.08293176 0 0 Z " fill="#303034" transform="translate(305,172)"/>
<path d="M0 0 C0.66 0 1.32 0 2 0 C2.33 1.32 2.66 2.64 3 4 C3.33 3.01 3.66 2.02 4 1 C4.66 1 5.32 1 6 1 C6.33 2.98 6.66 4.96 7 7 C6.01 7.33 5.02 7.66 4 8 C2.35 6.02 0.7 4.04 -1 2 C-0.67 1.34 -0.34 0.68 0 0 Z " fill="#100F10" transform="translate(568,541)"/>
<path d="M0 0 C3.875 1.75 3.875 1.75 5 4 C4.34 4 3.68 4 3 4 C3 4.99 3 5.98 3 7 C-0.875 5.25 -0.875 5.25 -2 3 C-1.34 2.01 -0.68 1.02 0 0 Z " fill="#1D1A1A" transform="translate(407,241)"/>
<path d="M0 0 C2.375 0.3125 2.375 0.3125 5 1 C5.66 1.99 6.32 2.98 7 4 C6.34 4 5.68 4 5 4 C4.67 4.66 4.34 5.32 4 6 C2.68 5.34 1.36 4.68 0 4 C0 2.68 0 1.36 0 0 Z " fill="#0D0E0D" transform="translate(410,245)"/>
<path d="M0 0 C0 3 0 3 -1.53125 4.60546875 C-2.1809375 5.12753906 -2.830625 5.64960938 -3.5 6.1875 C-4.1496875 6.71730469 -4.799375 7.24710937 -5.46875 7.79296875 C-5.9740625 8.19128906 -6.479375 8.58960938 -7 9 C-7.66 8.67 -8.32 8.34 -9 8 C-6.03 5.36 -3.06 2.72 0 0 Z " fill="#53524A" transform="translate(131,402)"/>
<path d="M0 0 C0.66 0.99 1.32 1.98 2 3 C1.34 4.32 0.68 5.64 0 7 C-1.32 6.67 -2.64 6.34 -4 6 C-4 5.01 -4 4.02 -4 3 C-3.01 2.67 -2.02 2.34 -1 2 C-0.67 1.34 -0.34 0.68 0 0 Z " fill="#141512" transform="translate(618,596)"/>
<path d="M0 0 C0.66 0.33 1.32 0.66 2 1 C-0.31 3.64 -2.62 6.28 -5 9 C-5.66 8.67 -6.32 8.34 -7 8 C-4.69 5.36 -2.38 2.72 0 0 Z " fill="#202419" transform="translate(233,288)"/>
<path d="M0 0 C6.75 0.75 6.75 0.75 9 3 C7 4 7 4 3.9375 3.1875 C1 2 1 2 0 0 Z " fill="#3D3D40" transform="translate(310,227)"/>
<path d="M0 0 C1.32 0.66 2.64 1.32 4 2 C2.68 3.65 1.36 5.3 0 7 C-0.99 5.68 -1.98 4.36 -3 3 C-2.34 3 -1.68 3 -1 3 C-0.67 2.01 -0.34 1.02 0 0 Z " fill="#403E39" transform="translate(429,259)"/>
<path d="M0 0 C1.32 1.32 2.64 2.64 4 4 C3.34 5.65 2.68 7.3 2 9 C1.01 8.01 0.02 7.02 -1 6 C-0.34 6 0.32 6 1 6 C0.67 4.02 0.34 2.04 0 0 Z " fill="#252625" transform="translate(436,264)"/>
<path d="M0 0 C0.66 0.66 1.32 1.32 2 2 C1.625 4.625 1.625 4.625 1 7 C0.01 7.33 -0.98 7.66 -2 8 C-1.34 5.36 -0.68 2.72 0 0 Z " fill="#131314" transform="translate(277,186)"/>
</svg>
